<svg xmlns="http://www.w3.org/2000/svg" width="960" height="720" viewBox="0 0 960 720">
  <defs>
    <linearGradient id="gA" x1="0" y1="0" x2="1" y2="1">
      <stop offset="0%" stop-color="#60a5fa"/>
      <stop offset="100%" stop-color="#3b82f6"/>
    </linearGradient>
    <linearGradient id="gB" x1="1" y1="0" x2="0" y2="1">
      <stop offset="0%" stop-color="#34d399"/>
      <stop offset="100%" stop-color="#10b981"/>
    </linearGradient>
    <linearGradient id="gC" x1="0" y1="1" x2="1" y2="0">
      <stop offset="0%" stop-color="#a78bfa"/>
      <stop offset="100%" stop-color="#6366f1"/>
    </linearGradient>
    <filter id="blur1" x="-20%" y="-20%" width="140%" height="140%">
      <feGaussianBlur in="SourceGraphic" stdDeviation="20" result="b"/>
    </filter>
  </defs>

  <rect width="960" height="720" rx="48" fill="none"/>

  <!-- Big gradient shapes -->
  <circle cx="700" cy="220" r="160" fill="url(#gA)" opacity=".9"/>
  <circle cx="560" cy="420" r="180" fill="url(#gB)" opacity=".85"/>
  <circle cx="820" cy="420" r="140" fill="url(#gC)" opacity=".75"/>

  <!-- Soft glow blobs -->
  <circle cx="640" cy="320" r="220" fill="#60a5fa" opacity=".18" filter="url(#blur1)"/>
  <circle cx="780" cy="340" r="220" fill="#a78bfa" opacity=".15" filter="url(#blur1)"/>

  <!-- Decorative elements -->
  <g opacity=".9">
    <rect x="120" y="110" width="220" height="140" rx="16" fill="white" opacity=".9"/>
    <rect x="140" y="130" width="180" height="20" rx="10" fill="#e5e7eb"/>
    <rect x="140" y="160" width="140" height="18" rx="9" fill="#c7d2fe"/>
    <rect x="140" y="185" width="110" height="18" rx="9" fill="#93c5fd"/>
    <rect x="140" y="210" width="90" height="18" rx="9" fill="#86efac"/>
  </g>

  <g opacity=".9">
    <rect x="210" y="300" width="260" height="170" rx="16" fill="white" opacity=".9"/>
    <circle cx="250" cy="340" r="20" fill="#93c5fd"/>
    <rect x="280" y="325" width="160" height="18" rx="9" fill="#e5e7eb"/>
    <rect x="280" y="350" width="120" height="16" rx="8" fill="#c7d2fe"/>
    <rect x="230" y="380" width="200" height="14" rx="7" fill="#bbf7d0"/>
    <rect x="230" y="400" width="170" height="14" rx="7" fill="#e9d5ff"/>
  </g>

  <!-- Subtle grid -->
  <g opacity=".06">
    <path d="M0 80h960M0 160h960M0 240h960M0 320h960M0 400h960M0 480h960M0 560h960M0 640h960" stroke="#000"/>
    <path d="M120 0v720M240 0v720M360 0v720M480 0v720M600 0v720M720 0v720M840 0v720" stroke="#000"/>
  </g>

</svg>
